0
SECTION
2
HEADER
9
$INSUNITS
70
4
0
ENDSEC
0
SECTION
2
TABLES
0
TABLE
2
LTYPE
0
LTYPE
72
65
70
64
2
CONTINUOUS
3
______
73
0
40
0
0
ENDTAB
0
TABLE
2
LAYER
0
ENDTAB
0
ENDSEC
0
SECTION
2
ENTITIES
0
LINE
8
0
10
88
20
-161
11
112
21
-161
0
LINE
8
0
10
113
20
-160
11
113
21
-159
0
LINE
8
0
10
87
20
-160
11
87
21
-85
0
LINE
8
0
10
106
20
-84
11
88
21
-84
0
LINE
8
0
10
113
20
-159
11
131
21
-159
0
LINE
8
0
10
132
20
-158
11
132
21
-152
0
LINE
8
0
10
124
20
-82
11
107
21
-82
0
LINE
8
0
10
106
20
-83
11
106
21
-84
0
LINE
8
0
10
133
20
-151
11
150
21
-151
0
LINE
8
0
10
151
20
-150
11
151
21
-147
0
LINE
8
0
10
143
20
-74
11
126
21
-74
0
LINE
8
0
10
125
20
-75
11
125
21
-81
0
LINE
8
0
10
152
20
-146
11
162
21
-146
0
LINE
8
0
10
170
20
-73
11
170
21
-70
0
LINE
8
0
10
169
20
-69
11
145
21
-69
0
LINE
8
0
10
144
20
-70
11
144
21
-73
0
LINE
8
0
10
163
20
-147
11
163
21
-147.1223251
0
LINE
8
0
10
189
20
-75
11
189
21
-74
0
LINE
8
0
10
189
20
-74
11
171
21
-74
0
LINE
8
0
10
206.4245792
20
-153
11
207
21
-153
0
LINE
8
0
10
208
20
-152
11
208
21
-114
0
LINE
8
0
10
208
20
-86
11
208
21
-77
0
LINE
8
0
10
207
20
-76
11
190
21
-76
0
LINE
8
0
10
161.1746436
20
-170.1941696
11
182.0802032
21
-172.7610495
0
LINE
8
0
10
163
20
-147.1223251
11
160.3039667
21
-169.0797541
0
LINE
8
0
10
182.2507056
20
-172.7972909
11
204.5446144
21
-179.6132228
0
LINE
8
0
10
205.7932909
20
-178.9492897
11
212.8102118
21
-155.9979756
0
LINE
8
0
10
212.1462787
20
-154.7492991
11
206.4245792
21
-153
0
LINE
8
0
10
209
20
-113
11
227
21
-113
0
LINE
8
0
10
228
20
-112
11
228
21
-88
0
LINE
8
0
10
227
20
-87
11
209
21
-87
0
ARC
8
0
10
112
20
-160
40
1
50
270
51
0
0
ARC
8
0
10
131
20
-158
40
1
50
270
51
0
0
ARC
8
0
10
133
20
-152
40
1
50
90
51
180
0
ARC
8
0
10
150
20
-150
40
1
50
270
51
0
0
ARC
8
0
10
152
20
-147
40
1
50
90
51
180
0
ARC
8
0
10
162
20
-147
40
1
50
0
51
90
0
ARC
8
0
10
161.2965129
20
-169.2016234
40
1
50
173.0000028
51
263.0000028
0
ARC
8
0
10
181.9583339
20
-173.7535957
40
1
50
73.000001
51
83.0000028
0
ARC
8
0
10
204.8369861
20
-178.656918
40
1
50
253.000001
51
343.000001
0
ARC
8
0
10
211.853907
20
-155.7056039
40
1
50
343.000001
51
73.000001
0
ARC
8
0
10
207
20
-152
40
1
50
270
51
0
0
ARC
8
0
10
209
20
-114
40
1
50
90
51
180
0
ARC
8
0
10
227
20
-112
40
1
50
270
51
0
0
ARC
8
0
10
227
20
-88
40
1
50
0
51
90
0
ARC
8
0
10
209
20
-86
40
1
50
180
51
270
0
ARC
8
0
10
207
20
-77
40
1
50
0
51
90
0
ARC
8
0
10
190
20
-75
40
1
50
180
51
270
0
ARC
8
0
10
171
20
-73
40
1
50
180
51
270
0
ARC
8
0
10
169
20
-70
40
1
50
0
51
90
0
ARC
8
0
10
145
20
-70
40
1
50
90
51
180
0
ARC
8
0
10
143
20
-73
40
1
50
270
51
0
0
ARC
8
0
10
126
20
-75
40
1
50
90
51
180
0
ARC
8
0
10
124
20
-81
40
1
50
270
51
0
0
ARC
8
0
10
107
20
-83
40
1
50
90
51
180
0
ARC
8
0
10
88
20
-85
40
1
50
90
51
180
0
ARC
8
0
10
88
20
-160
40
1
50
180
51
270
0
ENDSEC
0
EOF